<svg xmlns="http://www.w3.org/2000/svg" viewBox="0 0 426.5 141.89"><defs><style>.cls-1{fill:#ff962a;}.cls-1,.cls-2{stroke:#000;stroke-miterlimit:10;stroke-width:0.1px;}.cls-2{fill:#44b3b5;}</style></defs><g id="Layer_2" data-name="Layer 2"><g id="Layer_1-2" data-name="Layer 1"><path class="cls-1" d="M159.41,25.41H131.84a17.72,17.72,0,0,0-2.33-5.55L135.36,14a4,4,0,0,0-5.71-5.7l-5.91,5.91a17.62,17.62,0,0,0-5.17-2.15v-8a4,4,0,0,0-4-4h0a4,4,0,0,0-4,4v8a17.42,17.42,0,0,0-5.11,2L100,8.65a4,4,0,0,0-5.7,0h0a4,4,0,0,0,0,5.71l5.27,5.27a17.83,17.83,0,0,0-2.47,5.78H69.49a4,4,0,0,0,0,8.07H97.06a17.53,17.53,0,0,0,2.16,5.26L94.6,43.36a4,4,0,0,0,5.71,5.7l4.56-4.55a17.87,17.87,0,0,0,5.63,2.35v46a4,4,0,0,0,8.07,0v-46a17.53,17.53,0,0,0,5.69-2.45l5,5A4,4,0,0,0,135,43.7l-5.19-5.19a17.68,17.68,0,0,0,2-5h27.57a4,4,0,0,0,0-8.07Zm-45,16.14a12.11,12.11,0,1,1,12.1-12.11A12.1,12.1,0,0,1,114.45,41.55Z"/><g id="path399610"><path class="cls-2" d="M17.46,75.18a8,8,0,0,1-8,7.94,7.94,7.94,0,1,1,0-15.87A8,8,0,0,1,17.46,75.18Z"/><path class="cls-2" d="M37.18,94.3c-6.25,0-14.67-2.4-14.67-8.53,0-5.06,3.37-7.82,7.34-7.58s8.54,1.68,12.86-.36a9.52,9.52,0,0,0,5.9-8.78c0-5-5.65-8.3-17.92-12.75C19.63,52.34,3,47.41,2.91,30.93A23.77,23.77,0,0,1,9.77,14.22C13.61,10.37,20.71,5.8,33.1,5.8c14.06,0,23.44,7.45,26.57,11.9a7.78,7.78,0,0,1-.36,9.5c-2.89,3.61-7.21,3.25-10.22.6-2.17-1.92-7.22-7-16.48-7-8,0-13.7,4.21-13.7,10.1,0,3.85,4.2,7.09,16.71,11.91C51,48.73,64.6,55.22,64.6,70,64.6,81.92,56.3,94.3,37.18,94.3Z"/></g><g id="path399614"><path class="cls-2" d="M218.84,57.42,197.44,12.2a8.14,8.14,0,0,0-7.22-4.57A8,8,0,0,0,183,12.2L150.54,80.39a8.19,8.19,0,0,0,3.85,10.7A8,8,0,0,0,165,87.24l7.58-15.87H213a7.94,7.94,0,0,0,6.61-3.61C222.33,63.67,220.16,60.18,218.84,57.42Zm-39.8.95L190.22,34.8l11.31,23.57Z"/><path class="cls-2" d="M230.63,84.2a8,8,0,1,1-8.06-8.06A8,8,0,0,1,230.63,84.2Z"/></g><g id="path399616"><path class="cls-2" d="M307.64,34.38c0-16.47-11.19-27-28.39-27H253.38a8,8,0,0,0-7.93,7.93V84a8,8,0,1,0,16,.18V62.37h17.44l3.61,5.81a7.77,7.77,0,0,0,10.94,2.42c7.34-4.72,1.45-12.47,1.45-12.47C303.19,53.4,307.64,44.8,307.64,34.38Zm-28.93,14H261.45v-25h17.61c8.22,0,12.26,4.88,12.26,12.14C291.32,42.17,288.11,48.37,278.71,48.37Z"/><path class="cls-2" d="M302.54,92a8,8,0,1,1,7.94-7.94A8,8,0,0,1,302.54,92Z"/></g><g id="path399618"><path class="cls-2" d="M389.35,53.48a8,8,0,0,1-13.59-8.42,15.64,15.64,0,0,0,2.41-7.7c0-3.13-.73-13-10.35-13H345.45V84.64a8,8,0,1,1-16-.23V16.3a8,8,0,0,1,7.93-7.93h30.44c18.05,0,26.22,15,26.22,29A31.62,31.62,0,0,1,389.35,53.48Z"/><path class="cls-2" d="M361.15,65.68a8,8,0,0,1,0-16,8,8,0,0,1,0,16Z"/></g><g id="path399620"><path class="cls-2" d="M410.45,13.73a8,8,0,1,1,7.94,8.06A8,8,0,0,1,410.45,13.73Z"/><path class="cls-2" d="M410.45,84V37.89a8,8,0,1,1,16-.23V84.21a8,8,0,1,1-16-.23Z"/></g><path class="cls-2" d="M24.26,116.55l-5,18.09a.77.77,0,0,1-.74.58H17.12a.78.78,0,0,1-.74-.58l-3.76-13.8a9.61,9.61,0,0,1-.31-2h-.05a10.79,10.79,0,0,1-.35,2L8.12,134.64a.77.77,0,0,1-.74.58H6a.78.78,0,0,1-.74-.57L.08,116.56a.8.8,0,0,1,.74-1h.84a.79.79,0,0,1,.75.58L6.3,130.64a9.76,9.76,0,0,1,.32,2h.07a11.55,11.55,0,0,1,.41-2l4.05-14.53a.78.78,0,0,1,.74-.57h1a.78.78,0,0,1,.75.58l3.88,14.63a11.42,11.42,0,0,1,.32,1.84h.06a11,11,0,0,1,.35-1.9L22,116.13a.77.77,0,0,1,.74-.59h.81A.79.79,0,0,1,24.26,116.55Z"/><path class="cls-2" d="M36,135.22h-.63a.78.78,0,0,1-.77-.8V133h-.06a4.53,4.53,0,0,1-4.18,2.53,4.41,4.41,0,0,1-3.19-1.11,4,4,0,0,1-1.15-2.95q0-3.94,4.5-4.59l3.37-.49a.8.8,0,0,0,.67-.87c-.19-1.87-1.11-2.81-2.77-2.81a6.39,6.39,0,0,0-3.28.89.77.77,0,0,1-1.16-.68v-.33a.8.8,0,0,1,.38-.69A8.37,8.37,0,0,1,32,120.84c3.2,0,4.8,1.74,4.8,5.24v8.34A.79.79,0,0,1,36,135.22ZM34.64,129a.78.78,0,0,0-.88-.79l-2.41.34a5.1,5.1,0,0,0-2.28.77,2.26,2.26,0,0,0-.77,2A2.14,2.14,0,0,0,29,133a2.65,2.65,0,0,0,1.89.66,3.46,3.46,0,0,0,2.68-1.18,4.29,4.29,0,0,0,1.06-3Z"/><path class="cls-2" d="M50.62,121.17a.79.79,0,0,1,.71,1.09l-5.84,15.21q-1.66,4.36-4.7,4.37a4.77,4.77,0,0,1-1.42-.18v-2a4.07,4.07,0,0,0,1.29.25c1.09,0,1.92-.68,2.47-2l1-2.37a.78.78,0,0,0,0-.6l-4.79-12.64a.79.79,0,0,1,.72-1.08h.74a.77.77,0,0,1,.73.53L45,132c0,.14.14.5.28,1.07h.08c0-.21.13-.55.26-1a.14.14,0,0,1,0-.06l3.67-10.29a.76.76,0,0,1,.72-.52Z"/><path class="cls-2" d="M69.52,135.55A8.23,8.23,0,0,1,63,132.79a10.42,10.42,0,0,1-2.44-7.18A11.08,11.08,0,0,1,63.07,118a8.55,8.55,0,0,1,6.77-2.83A8.06,8.06,0,0,1,76.2,118a10.48,10.48,0,0,1,2.41,7.18,11.11,11.11,0,0,1-2.47,7.62A8.39,8.39,0,0,1,69.52,135.55Zm.16-18.25a6.07,6.07,0,0,0-4.88,2.23,10.22,10.22,0,0,0,0,11.73,5.86,5.86,0,0,0,4.76,2.22,6.15,6.15,0,0,0,4.94-2.12,8.79,8.79,0,0,0,1.81-5.91,9.24,9.24,0,0,0-1.75-6A5.93,5.93,0,0,0,69.68,117.3Z"/><path class="cls-2" d="M88.79,115.28a.78.78,0,0,1-.91.78,3.12,3.12,0,0,0-.54,0c-1.52,0-2.29,1-2.29,3v1.37a.79.79,0,0,0,.78.8h1.64a.77.77,0,0,1,.77.79v.33a.78.78,0,0,1-.77.8H85.83a.78.78,0,0,0-.78.79v10.54a.78.78,0,0,1-.77.8h-.62a.78.78,0,0,1-.77-.8V123.88a.78.78,0,0,0-.77-.79h-.79a.79.79,0,0,1-.77-.8V122a.78.78,0,0,1,.77-.79h.79a.79.79,0,0,0,.77-.8v-1.48a4.85,4.85,0,0,1,1.23-3.5,4.15,4.15,0,0,1,3.09-1.28,5.33,5.33,0,0,1,.93.07.79.79,0,0,1,.65.79Z"/><path class="cls-2" d="M107.66,135.22H99.1a.79.79,0,0,1-.77-.8V116.34a.79.79,0,0,1,.77-.8h8.13a.78.78,0,0,1,.77.8v.49a.77.77,0,0,1-.77.79h-5.9a.79.79,0,0,0-.77.8v5a.79.79,0,0,0,.77.8h5.34a.79.79,0,0,1,.78.8v.48a.78.78,0,0,1-.78.79h-5.34a.79.79,0,0,0-.77.8v5.3a.78.78,0,0,0,.77.79h6.33a.79.79,0,0,1,.77.8v.49A.79.79,0,0,1,107.66,135.22Z"/><path class="cls-2" d="M121,122.4l-3.49,5.43a.84.84,0,0,0,0,.89l3.4,5.26a.79.79,0,0,1-.64,1.24h-.66a.78.78,0,0,1-.66-.38l-2.44-4.18c-.17-.28-.37-.64-.6-1.07h0l-.63,1.07-2.5,4.18a.76.76,0,0,1-.65.38h-.61a.8.8,0,0,1-.63-1.25l3.5-5.2a.84.84,0,0,0,0-.89l-3.41-5.49a.8.8,0,0,1,.65-1.22h.68a.75.75,0,0,1,.67.4l2.41,4.4c.2.36.39.72.57,1.1h.06l3.18-5.52a.75.75,0,0,1,.66-.38h.53A.79.79,0,0,1,121,122.4Z"/><path class="cls-2" d="M133.57,134.1a.79.79,0,0,1-.4.7,7.07,7.07,0,0,1-3.32.75,6.06,6.06,0,0,1-4.7-2,7.21,7.21,0,0,1-1.78-5.07,8,8,0,0,1,1.92-5.58,6.66,6.66,0,0,1,5.15-2.1,7.41,7.41,0,0,1,2.69.47.79.79,0,0,1,.47.74v.42a.78.78,0,0,1-1.08.73,5.22,5.22,0,0,0-2.16-.47,4.38,4.38,0,0,0-3.43,1.54,6,6,0,0,0-1.33,4.06,5.68,5.68,0,0,0,1.26,3.9,4.25,4.25,0,0,0,3.36,1.43,5.1,5.1,0,0,0,2.26-.53.76.76,0,0,1,1.09.71Z"/><path class="cls-2" d="M147,128.76h-8a.79.79,0,0,0-.77.9,4.89,4.89,0,0,0,1.16,2.72,4.15,4.15,0,0,0,3.22,1.28,6.29,6.29,0,0,0,3.1-.81.77.77,0,0,1,1.12.71v.22a.78.78,0,0,1-.34.66,8,8,0,0,1-4.4,1.11,5.67,5.67,0,0,1-4.53-1.91,8,8,0,0,1-1.65-5.39,7.85,7.85,0,0,1,1.8-5.35,5.68,5.68,0,0,1,4.47-2.06,5,5,0,0,1,4.13,1.78,7.58,7.58,0,0,1,1.47,5V128A.79.79,0,0,1,147,128.76Zm-2.29-1.91a.78.78,0,0,0,.77-.9,4.06,4.06,0,0,0-.85-2.14,2.93,2.93,0,0,0-2-1,3.74,3.74,0,0,0-3.27,1.3,4.9,4.9,0,0,0-.94,1.78.79.79,0,0,0,.75,1Z"/><path class="cls-2" d="M152.51,135.22h-.64a.79.79,0,0,1-.77-.8V115.21a.79.79,0,0,1,.77-.8h.64a.79.79,0,0,1,.77.8v19.21A.79.79,0,0,1,152.51,135.22Z"/><path class="cls-2" d="M159.1,135.22h-.64a.79.79,0,0,1-.77-.8V115.21a.79.79,0,0,1,.77-.8h.64a.78.78,0,0,1,.77.8v19.21A.78.78,0,0,1,159.1,135.22Z"/><path class="cls-2" d="M174.45,128.76h-8a.79.79,0,0,0-.77.9,4.82,4.82,0,0,0,1.16,2.72,4.13,4.13,0,0,0,3.21,1.28,6.33,6.33,0,0,0,3.11-.81.77.77,0,0,1,1.12.71v.22a.79.79,0,0,1-.35.66,8,8,0,0,1-4.4,1.11,5.68,5.68,0,0,1-4.53-1.91,8,8,0,0,1-1.65-5.39,7.85,7.85,0,0,1,1.8-5.35,5.7,5.7,0,0,1,4.48-2.06,5,5,0,0,1,4.13,1.78,7.64,7.64,0,0,1,1.46,5V128A.79.79,0,0,1,174.45,128.76Zm-2.29-1.91a.79.79,0,0,0,.77-.9,4.23,4.23,0,0,0-.85-2.14,3,3,0,0,0-2-1,3.73,3.73,0,0,0-3.27,1.3,5.07,5.07,0,0,0-1,1.78.79.79,0,0,0,.75,1Z"/><path class="cls-2" d="M189,135.22h-.64a.79.79,0,0,1-.77-.8V127.2c0-2.58-.79-4-2.38-4.39a3.63,3.63,0,0,0-3.74,1.53,4.92,4.92,0,0,0-.81,2.86v7.22a.79.79,0,0,1-.78.8h-.63a.78.78,0,0,1-.77-.8V122a.77.77,0,0,1,.77-.79h.63a.78.78,0,0,1,.78.79v1.54h.05a4.87,4.87,0,0,1,4.46-2.66,4.09,4.09,0,0,1,3.42,1.49,6.76,6.76,0,0,1,1.18,4.3v7.79A.78.78,0,0,1,189,135.22Z"/><path class="cls-2" d="M203.19,134.1a.79.79,0,0,1-.4.7,7,7,0,0,1-3.32.75,6,6,0,0,1-4.69-2,7.17,7.17,0,0,1-1.79-5.07,8,8,0,0,1,1.92-5.58,6.66,6.66,0,0,1,5.15-2.1,7.42,7.42,0,0,1,2.7.47.8.8,0,0,1,.46.74v.42a.77.77,0,0,1-1.07.73,5.3,5.3,0,0,0-2.17-.47,4.34,4.34,0,0,0-3.42,1.54,6,6,0,0,0-1.34,4.06,5.68,5.68,0,0,0,1.26,3.9,4.25,4.25,0,0,0,3.36,1.43,5.1,5.1,0,0,0,2.26-.53.76.76,0,0,1,1.09.71Z"/><path class="cls-2" d="M216.65,128.76h-8a.79.79,0,0,0-.77.9,4.89,4.89,0,0,0,1.16,2.72,4.15,4.15,0,0,0,3.22,1.28,6.27,6.27,0,0,0,3.1-.81.77.77,0,0,1,1.12.71v.22a.78.78,0,0,1-.34.66,8,8,0,0,1-4.4,1.11,5.68,5.68,0,0,1-4.53-1.91,8,8,0,0,1-1.65-5.39,7.85,7.85,0,0,1,1.8-5.35,5.68,5.68,0,0,1,4.47-2.06,5,5,0,0,1,4.13,1.78,7.58,7.58,0,0,1,1.47,5V128A.79.79,0,0,1,216.65,128.76Zm-2.28-1.91a.79.79,0,0,0,.77-.9,4.15,4.15,0,0,0-.86-2.14,2.93,2.93,0,0,0-2-1,3.75,3.75,0,0,0-3.27,1.3,5.06,5.06,0,0,0-.94,1.78.79.79,0,0,0,.75,1Z"/></g></g></svg>