<svg xmlns="http://www.w3.org/2000/svg" viewBox="0 0 129.03 91.9"><defs><style>.cls-1{fill:#44b3b5;}.cls-1,.cls-2{stroke:#000;stroke-miterlimit:10;stroke-width:0.25px;}.cls-2{fill:#ff962a;}</style></defs><g id="Layer_2" data-name="Layer 2"><g id="Layer_1-2" data-name="Layer 1"><path class="cls-1" d="M125.28,14.76h-9.49a3.64,3.64,0,0,0-3.63,3.63V87.83a3.62,3.62,0,0,1-3.62,3.62h-.2a3.62,3.62,0,0,1-3.62-3.62V18.39a3.64,3.64,0,0,0-3.63-3.63h-17a3.64,3.64,0,0,0-3.63,3.63V87.83a3.62,3.62,0,0,1-3.62,3.62h-.2A3.62,3.62,0,0,1,73,87.83V18.39a3.64,3.64,0,0,0-3.63-3.63H60.32a3.63,3.63,0,0,1-3.63-3.62h0a3.64,3.64,0,0,1,3.63-3.63h65a3.63,3.63,0,0,1,3.62,3.63h0A3.62,3.62,0,0,1,125.28,14.76Z"/><path class="cls-2" d="M89.05,24.13H63a17,17,0,0,0-2.21-5.25l5.53-5.54a3.82,3.82,0,0,0-5.4-5.4l-5.59,5.59a16.73,16.73,0,0,0-4.89-2V3.94A3.82,3.82,0,0,0,46.58.12h0a3.82,3.82,0,0,0-3.82,3.82v7.52a16.65,16.65,0,0,0-4.84,1.94L32.79,8.27a3.8,3.8,0,0,0-5.4,0h0a3.8,3.8,0,0,0,0,5.4l5,5A16.92,16.92,0,0,0,30,24.13H3.94a3.82,3.82,0,0,0,0,7.64H30a17,17,0,0,0,2,5l-4.37,4.37a3.82,3.82,0,0,0,5.4,5.4l4.31-4.32a16.8,16.8,0,0,0,5.34,2.23V88a3.82,3.82,0,0,0,7.64,0V44.39a16.71,16.71,0,0,0,5.38-2.33l4.78,4.78a3.82,3.82,0,0,0,5.4-5.4L61,36.52A16.74,16.74,0,0,0,63,31.77H89.05a3.82,3.82,0,0,0,0-7.64ZM46.49,39.4A11.46,11.46,0,1,1,58,28,11.45,11.45,0,0,1,46.49,39.4Z"/></g></g></svg>